<svg width="32" height="32" viewBox="0 0 32 32" fill="none" xmlns="http://www.w3.org/2000/svg">
  <defs>
    <linearGradient id="faviconGradient" x1="0%" y1="0%" x2="100%" y2="100%">
      <stop offset="0%" style="stop-color:#047857;stop-opacity:1" />
      <stop offset="100%" style="stop-color:#059669;stop-opacity:1" />
    </linearGradient>
    <linearGradient id="faviconNodeGradient" x1="0%" y1="0%" x2="100%" y2="100%">
      <stop offset="0%" style="stop-color:#10b981;stop-opacity:1" />
      <stop offset="100%" style="stop-color:#059669;stop-opacity:1" />
    </linearGradient>
  </defs>
  
  <!-- Background circle matching main icon -->
  <circle cx="16" cy="16" r="15" fill="url(#faviconGradient)"/>
  <circle cx="16" cy="16" r="15" fill="none" stroke="rgba(255,255,255,0.1)" stroke-width="0.5"/>
  
  <!-- Central hub node -->
  <circle cx="16" cy="16" r="3.5" fill="white" opacity="0.95"/>
  <circle cx="16" cy="16" r="2.7" fill="url(#faviconNodeGradient)"/>
  
  <!-- Three outer nodes -->
  <circle cx="16" cy="4" r="2.2" fill="white" opacity="0.9"/>
  <circle cx="16" cy="4" r="1.6" fill="#10b981"/>
  
  <circle cx="4" cy="26" r="2.2" fill="white" opacity="0.9"/>
  <circle cx="4" cy="26" r="1.6" fill="#10b981"/>
  
  <circle cx="28" cy="26" r="2.2" fill="white" opacity="0.9"/>
  <circle cx="28" cy="26" r="1.6" fill="#10b981"/>
  
  <!-- Connection lines from center to outer nodes -->
  <line x1="16" y1="13.3" x2="16" y2="5.6" stroke="white" stroke-width="1" opacity="0.6" stroke-linecap="round"/>
  <line x1="13.3" y1="16" x2="5.6" y2="24.4" stroke="white" stroke-width="1" opacity="0.6" stroke-linecap="round"/>
  <line x1="18.7" y1="16" x2="26.4" y2="24.4" stroke="white" stroke-width="1" opacity="0.6" stroke-linecap="round"/>
  
  <!-- Connection lines between outer nodes (simplified for small size) -->
  <line x1="16" y1="5.6" x2="5.6" y2="24.4" stroke="white" stroke-width="0.8" opacity="0.4" stroke-linecap="round" stroke-dasharray="1.5,1.5"/>
  <line x1="16" y1="5.6" x2="26.4" y2="24.4" stroke="white" stroke-width="0.8" opacity="0.4" stroke-linecap="round" stroke-dasharray="1.5,1.5"/>
  <line x1="5.6" y1="24.4" x2="26.4" y2="24.4" stroke="white" stroke-width="0.8" opacity="0.4" stroke-linecap="round" stroke-dasharray="1.5,1.5"/>
  
  <!-- Inner accent ring in center -->
  <circle cx="16" cy="16" r="2" fill="none" stroke="white" stroke-width="0.4" opacity="0.3"/>
</svg>

